PathFileType	4	(X/Y/Z)	C:/Users/opensim2020/Desktop/walking_exp_matlab/subject01_walking15_straight_02.trc	
DataRate	CameraRate	NumFrames	NumMarkers	Units	OrigDataRate	OrigDataStartFrame	OrigNumFrames	
100.00	100.00	5	43	mm	100.00	1263	135	
Frame#	Time	LFHD			RFHD			LBHD			RBHD			C7			T10			CLAV			STRN			RBAK			LSHO			LUPA			LELB			LFRM			LWRA			LWRB			LFIN			RSHO			RUPA			RELB			RFRM			RWRA			RWRB			RFIN			LASI			RASI			LPSI			RPSI			LTHI			LKNE			LTIB			LANK			LHEE			LTOE			RTHI			RKNE			RTIB			RANK			RHEE			RTOE			*39			*40			*41			*42			
		X1	Y1	Z1	X2	Y2	Z2	X3	Y3	Z3	X4	Y4	Z4	X5	Y5	Z5	X6	Y6	Z6	X7	Y7	Z7	X8	Y8	Z8	X9	Y9	Z9	X10	Y10	Z10	X11	Y11	Z11	X12	Y12	Z12	X13	Y13	Z13	X14	Y14	Z14	X15	Y15	Z15	X16	Y16	Z16	X17	Y17	Z17	X18	Y18	Z18	X19	Y19	Z19	X20	Y20	Z20	X21	Y21	Z21	X22	Y22	Z22	X23	Y23	Z23	X24	Y24	Z24	X25	Y25	Z25	X26	Y26	Z26	X27	Y27	Z27	X28	Y28	Z28	X29	Y29	Z29	X30	Y30	Z30	X31	Y31	Z31	X32	Y32	Z32	X33	Y33	Z33	X34	Y34	Z34	X35	Y35	Z35	X36	Y36	Z36	X37	Y37	Z37	X38	Y38	Z38	X39	Y39	Z39	X40	Y40	Z40	X41	Y41	Z41	X42	Y42	Z42	X43	Y43	Z43	

119	1.180	-984.73956	-598.44373	1653.47876	-1093.26184	-631.34760	1663.89478	-1016.20776	-489.22104	1600.90417	-1132.01965	-522.17084	1611.13892	-1053.12427	-469.09100	1414.54346	-1066.17615	-430.15286	1121.59473	-1058.04041	-615.29108	1347.99939	-1055.61230	-656.12531	1192.13232	-1128.31421	-411.68317	1224.11267	-896.34088	-558.39532	1382.21033	-801.67926	-545.11127	1204.59277	-783.22650	-558.87177	1052.82617	-762.74768	-664.13568	1000.59320	-780.60541	-799.58923	986.79645	-762.26184	-769.53198	939.63550	-746.35876	-851.38922	934.10980	-1206.48352	-548.29700	1383.23206	-1297.94934	-442.07629	1201.13867	-1305.08118	-420.87863	1080.99207	-1342.78198	-400.63220	967.23303	-1336.43726	-429.91876	825.98944	-1370.58569	-387.31528	847.02521	-1377.65515	-390.55234	759.07813	-949.41522	-598.65381	921.57623	-1166.40918	-618.07892	921.35095	-1024.00427	-419.09399	930.01166	-1166.47937	-434.24680	925.58197	-900.85962	-492.35577	595.11169	-917.92657	-444.61710	465.29373	-915.83203	-333.00226	309.20230	-968.57294	-231.81404	114.15502	-1021.55719	-180.01276	104.01315	-963.15973	-354.09338	32.79454	-1257.10034	-647.49194	601.78363	-1238.43457	-721.20020	462.72299	-1266.06555	-728.68292	289.81140	-1242.98376	-788.91309	83.13151	-1194.96924	-760.87756	26.14087	-1240.71472	-935.08118	92.04229	-1071.83765	-612.88177	1695.24597	-3103.07104	1972.79993	1024.08276	-3138.69287	2012.99829	1022.44043			 
120	1.190	-986.26953	-610.94635	1652.30151	-1094.60583	-644.32227	1662.87537	-1018.29663	-501.75757	1599.96069	-1133.92468	-535.24695	1610.17529	-1054.95190	-481.98459	1413.20667	-1067.64441	-444.31372	1120.04480	-1059.46313	-628.40540	1347.18018	-1056.74500	-669.98291	1191.57288	-1129.80493	-425.54758	1222.42664	-897.99939	-570.95471	1381.52246	-802.92084	-557.79352	1204.15991	-783.70618	-571.91010	1052.59631	-763.02039	-677.77124	1001.87677	-780.86743	-813.25903	990.15601	-762.27246	-784.00061	942.54156	-746.33173	-865.94958	938.54974	-1208.18103	-561.64911	1382.02502	-1299.19263	-455.06522	1200.09595	-1306.34204	-433.73441	1080.04138	-1343.91211	-412.72504	966.44550	-1337.60181	-440.75131	824.77625	-1371.59338	-398.47540	846.26440	-1378.70947	-401.05771	758.25037	-949.85400	-612.65662	920.35950	-1166.63721	-633.49255	920.33313	-1026.08508	-433.60690	928.90564	-1168.42896	-448.97171	924.93121	-901.46838	-505.10568	594.15381	-918.28308	-456.66708	464.56552	-915.71429	-341.72263	310.83774	-967.61957	-235.52393	118.43489	-1020.22833	-183.09448	109.91972	-963.05939	-354.56812	32.83771	-1255.93201	-665.11597	601.80786	-1238.78625	-735.49036	460.84238	-1265.81055	-741.46814	287.69031	-1241.75122	-799.06586	80.17515	-1194.12061	-769.91901	23.87746	-1238.03113	-945.22021	87.98554	-1073.31531	-625.78156	1694.19897	-3102.66772	1972.87000	1024.07251	-3138.55664	2013.11401	1022.24640			 
121	1.200	-987.80676	-623.86371	1651.38757	-1095.78320	-657.25879	1661.87158	-1020.41290	-514.34857	1598.92566	-1135.51868	-548.59155	1609.02148	-1057.12097	-495.05319	1411.70618	-1069.13440	-458.67624	1118.43909	-1061.12244	-641.65662	1346.44543	-1057.93298	-683.98456	1190.98718	-1131.29468	-439.55542	1220.73755	-899.81708	-583.51221	1380.69507	-804.15808	-570.37482	1203.71716	-784.07916	-584.68530	1052.32959	-763.38214	-691.05878	1002.87195	-781.28571	-826.50256	992.72968	-762.40656	-797.81915	944.83362	-746.32593	-879.82782	942.15002	-1210.10242	-575.08295	1380.87048	-1300.45728	-468.39844	1198.83362	-1307.65894	-446.93307	1078.95374	-1345.15234	-425.42966	965.49121	-1338.96729	-452.87546	823.92480	-1372.82141	-410.27948	845.27905	-1379.81860	-412.34488	757.31927	-950.51434	-627.37683	919.34204	-1167.10010	-649.09613	919.44135	-1028.27979	-448.35626	927.78839	-1170.28125	-464.69034	924.05658	-902.32233	-518.53302	592.97882	-918.66638	-469.52509	463.69806	-915.54047	-351.10995	312.53217	-966.56012	-239.41789	123.00032	-1018.97748	-186.84346	116.11960	-963.10748	-355.10672	32.94506	-1254.69910	-682.97772	601.24231	-1238.72253	-750.05981	458.94000	-1264.78308	-753.35510	285.02405	-1240.18311	-807.18988	77.02168	-1193.32910	-775.60602	23.08588	-1235.31812	-952.98712	82.36092	-1074.74573	-638.68433	1693.17859	-3102.40405	1972.98389	1024.11340	-3138.50757	2013.10217	1022.44421			 
122	1.210	-989.24780	-635.59113	1650.14355	-1097.02966	-670.17682	1660.78833	-1022.65491	-526.83331	1597.77112	-1137.58789	-561.74445	1608.05103	-1059.06201	-508.12207	1410.11560	-1070.69824	-473.12845	1116.71631	-1062.74597	-654.96869	1345.64209	-1059.16626	-698.04486	1190.41162	-1132.86523	-453.69296	1218.90405	-901.66949	-596.16998	1379.80835	-805.56213	-582.87463	1203.29492	-784.61322	-596.50336	1052.34082	-763.91315	-704.22321	1003.79858	-781.75000	-839.30408	994.63666	-762.52747	-811.13464	946.60748	-746.52795	-893.58154	944.81476	-1211.99414	-588.70227	1379.62646	-1301.89233	-482.03369	1197.46167	-1308.96350	-460.64871	1077.66028	-1346.64307	-438.70944	964.46436	-1340.34973	-465.42978	822.72156	-1374.23682	-422.81763	844.51361	-1381.14771	-424.38419	756.22559	-951.13092	-641.78625	917.88763	-1167.86816	-664.91681	918.60248	-1030.42041	-463.36011	926.52875	-1172.06677	-480.37128	922.87048	-903.31335	-532.56073	591.63770	-919.14893	-482.96774	462.52100	-915.16937	-360.88724	314.32687	-965.85620	-243.55000	127.78028	-1017.89667	-191.27179	122.84994	-963.20105	-355.59415	33.18835	-1253.52417	-700.47516	601.02667	-1238.18188	-764.51941	456.95789	-1263.47192	-764.44434	282.26987	-1238.63416	-813.60480	73.98616	-1192.66687	-779.13403	23.15860	-1232.25085	-959.63190	74.51094	-1076.13635	-651.74298	1692.29688	-3103.04907	1972.81677	1024.70227	-3138.83789	2012.96875	1022.24731			 
123	1.220	-990.77380	-647.85712	1649.00232	-1098.34351	-683.11932	1659.83655	-1024.87402	-539.31042	1596.68933	-1139.59424	-574.95056	1607.04431	-1060.79089	-521.04883	1408.61218	-1072.33789	-487.79843	1114.91833	-1064.39453	-668.41968	1344.79846	-1060.43701	-712.35376	1189.85767	-1134.58984	-467.87476	1216.94031	-903.60657	-608.67310	1378.93579	-807.04181	-595.23706	1202.70178	-785.20563	-608.47833	1051.85535	-764.31073	-716.12927	1004.05707	-782.29584	-851.63727	995.81573	-762.82806	-823.82458	947.66089	-746.66577	-905.79816	946.50885	-1213.81604	-602.47485	1378.31750	-1303.44592	-496.02524	1195.84558	-1310.45007	-474.76398	1076.16931	-1347.80505	-452.43875	963.06207	-1341.78271	-478.71805	821.30151	-1375.35693	-436.21744	843.08380	-1382.47034	-437.29071	754.86517	-952.03162	-656.86444	916.52753	-1168.79468	-680.50818	917.75299	-1032.47864	-478.21103	925.41479	-1174.15063	-496.01709	921.72137	-904.30774	-547.30933	590.17828	-919.65002	-497.30466	461.12524	-915.05212	-371.42804	316.09900	-964.82434	-248.91000	132.75018	-1016.81207	-196.67314	129.91096	-963.21967	-356.17068	33.27882	-1252.70679	-717.67322	599.58954	-1238.13403	-779.15155	454.98544	-1261.25598	-774.98572	280.06567	-1237.98230	-819.77344	72.69403	-1192.08130	-780.17914	24.37309	-1229.68555	-965.32227	62.56020	-1077.50146	-664.44104	1691.16248	-3102.97168	1972.86206	1024.62231	-3138.65552	2013.06860	1022.30817			 
